<?xml version="1.0" encoding="UTF-8" ?>
<!DOCTYPE svg PUBLIC "-//W3C//DTD SVG 1.1//EN" "http://www.w3.org/Graphics/SVG/1.1/DTD/svg11.dtd">
<svg width="300pt" height="242pt" viewBox="0 0 300 242" version="1.1" xmlns="http://www.w3.org/2000/svg">
<g id="#1ab7eaff">
<path fill="#1ab7ea" opacity="1.00" d=" M 117.41 1.48 C 143.59 1.40 169.79 1.18 195.96 1.72 C 213.90 2.36 231.94 3.14 249.59 6.64 C 258.65 8.55 267.93 10.97 275.58 16.41 C 283.14 22.26 287.87 30.96 291.22 39.75 C 296.67 54.87 298.21 71.04 299.03 86.99 C 299.73 104.31 299.46 121.66 299.45 138.99 C 299.09 159.73 298.39 180.91 291.75 200.76 C 288.15 210.71 282.88 220.81 273.82 226.80 C 262.91 233.40 250.03 235.52 237.60 237.34 C 209.88 240.84 181.88 240.58 154.00 240.60 C 137.01 240.58 120.02 240.73 103.04 240.24 C 83.86 239.54 64.53 238.69 45.77 234.34 C 37.00 232.14 27.81 229.31 21.20 222.81 C 12.30 213.73 7.79 201.39 5.00 189.22 C 0.17 166.49 0.56 143.11 0.50 120.00 C 0.56 97.29 0.29 74.31 5.18 52.00 C 8.09 39.67 12.83 27.10 22.23 18.21 C 29.65 11.72 39.49 9.09 48.88 6.95 C 71.41 2.37 94.51 1.93 117.41 1.48 M 57.33 57.38 C 54.94 58.04 53.86 60.63 54.01 62.93 C 53.99 68.96 53.88 74.99 54.07 81.01 C 53.97 83.69 56.34 85.98 58.99 85.91 C 65.34 86.19 71.70 85.90 78.04 86.04 C 80.54 85.89 83.54 86.43 85.50 84.51 C 87.67 82.26 86.83 78.83 87.03 76.02 C 86.81 70.79 87.46 65.50 86.65 60.32 C 85.49 56.67 81.11 56.93 78.04 56.96 C 71.14 57.26 64.17 56.47 57.33 57.38 M 110.33 57.38 C 107.94 58.04 106.86 60.63 107.01 62.93 C 106.99 68.96 106.88 74.99 107.07 81.01 C 106.97 83.69 109.34 85.98 111.99 85.91 C 118.34 86.19 124.69 85.90 131.04 86.04 C 133.53 85.89 136.54 86.43 138.50 84.51 C 140.67 82.26 139.83 78.83 140.04 76.01 C 139.81 70.79 140.46 65.50 139.65 60.32 C 138.49 56.67 134.11 56.93 131.04 56.96 C 124.15 57.26 117.17 56.48 110.33 57.38 M 164.33 57.38 C 161.94 58.04 160.86 60.63 161.01 62.93 C 160.99 68.95 160.88 74.99 161.07 81.01 C 160.96 83.70 163.34 85.98 166.00 85.91 C 173.35 86.13 180.71 86.00 188.07 85.98 C 190.64 86.17 193.53 84.66 193.83 81.89 C 194.27 76.26 193.89 70.59 194.03 64.94 C 194.06 62.35 194.12 58.97 191.37 57.66 C 188.06 56.48 184.43 57.14 180.99 56.99 C 175.44 57.22 169.83 56.50 164.33 57.38 M 217.33 57.38 C 214.94 58.04 213.86 60.63 214.01 62.93 C 213.99 68.96 213.88 74.99 214.07 81.01 C 213.96 83.69 216.34 85.98 219.00 85.91 C 225.34 86.19 231.69 85.90 238.04 86.04 C 240.53 85.89 243.53 86.43 245.50 84.51 C 247.67 82.26 246.83 78.83 247.03 76.01 C 246.81 70.79 247.46 65.50 246.65 60.32 C 245.49 56.67 241.11 56.93 238.04 56.96 C 231.15 57.26 224.18 56.48 217.33 57.38 M 57.33 106.38 C 54.94 107.04 53.86 109.63 54.01 111.93 C 53.99 117.96 53.88 123.99 54.07 130.01 C 53.97 132.69 56.34 134.98 58.99 134.91 C 65.34 135.19 71.69 134.90 78.04 135.04 C 80.53 134.89 83.54 135.43 85.50 133.51 C 87.67 131.25 86.83 127.83 87.03 125.01 C 86.81 119.79 87.46 114.50 86.65 109.32 C 85.49 105.67 81.11 105.93 78.04 105.96 C 71.15 106.26 64.17 105.47 57.33 106.38 M 110.33 106.38 C 107.94 107.04 106.86 109.63 107.01 111.93 C 106.99 117.96 106.88 123.99 107.07 130.01 C 106.97 132.69 109.33 134.98 111.99 134.91 C 118.33 135.19 124.69 134.90 131.04 135.04 C 133.53 134.89 136.54 135.44 138.50 133.51 C 140.48 131.56 139.89 128.54 140.04 126.04 C 139.88 120.73 140.28 115.41 139.83 110.12 C 139.48 106.86 135.90 105.72 133.08 105.98 C 125.51 106.22 117.86 105.49 110.33 106.38 M 164.33 106.38 C 161.94 107.04 160.86 109.63 161.01 111.93 C 160.99 117.96 160.88 123.99 161.07 130.01 C 160.96 132.69 163.33 134.98 165.99 134.91 C 172.33 135.19 178.69 134.90 185.04 135.04 C 187.53 134.89 190.54 135.43 192.50 133.51 C 194.67 131.25 193.83 127.83 194.03 125.01 C 193.81 119.79 194.46 114.50 193.65 109.32 C 192.49 105.67 188.11 105.93 185.04 105.96 C 178.14 106.26 171.17 105.47 164.33 106.38 M 217.33 106.38 C 214.94 107.04 213.86 109.63 214.01 111.94 C 213.99 117.96 213.88 123.99 214.07 130.02 C 213.97 132.70 216.34 134.98 218.99 134.91 C 225.68 135.18 232.38 134.91 239.07 135.03 C 241.65 135.03 245.02 135.10 246.34 132.38 C 247.43 129.74 246.89 126.78 247.03 124.00 C 246.82 119.11 247.44 114.16 246.65 109.32 C 245.49 105.67 241.11 105.93 238.04 105.96 C 231.14 106.26 224.17 105.47 217.33 106.38 M 57.33 156.38 C 54.94 157.04 53.86 159.63 54.01 161.93 C 53.99 167.96 53.88 173.99 54.07 180.01 C 53.92 183.15 57.01 185.27 59.93 184.98 C 66.98 185.04 74.03 185.04 81.07 184.98 C 83.64 185.17 86.53 183.66 86.83 180.88 C 87.27 175.25 86.89 169.58 87.03 163.94 C 87.06 161.34 87.11 157.97 84.37 156.66 C 81.06 155.48 77.44 156.14 73.99 155.99 C 68.45 156.22 62.83 155.50 57.33 156.38 M 110.33 156.38 C 107.94 157.04 106.86 159.64 107.01 161.94 C 106.99 167.96 106.88 173.99 107.07 180.01 C 106.97 182.69 109.33 184.98 111.99 184.91 C 118.33 185.19 124.69 184.90 131.04 185.04 C 133.53 184.89 136.53 185.43 138.50 183.51 C 140.67 181.26 139.83 177.83 140.04 175.01 C 139.81 169.79 140.46 164.50 139.65 159.32 C 138.49 155.67 134.11 155.93 131.04 155.96 C 124.15 156.26 117.17 155.48 110.33 156.38 M 164.33 156.38 C 161.94 157.04 160.86 159.63 161.01 161.93 C 160.99 167.96 160.88 173.99 161.07 180.01 C 160.92 183.15 164.01 185.27 166.93 184.98 C 174.29 185.00 181.65 185.13 189.01 184.91 C 191.67 184.98 194.01 182.68 193.93 180.01 C 194.09 173.67 194.09 167.32 193.93 160.99 C 194.06 157.86 191.00 155.72 188.07 156.02 C 180.17 156.17 172.18 155.52 164.33 156.38 M 217.33 156.38 C 214.94 157.04 213.86 159.63 214.01 161.93 C 213.99 167.95 213.88 173.99 214.07 180.01 C 213.97 182.70 216.34 184.98 219.00 184.91 C 225.34 185.19 231.69 184.90 238.04 185.04 C 240.53 184.89 243.54 185.43 245.51 183.51 C 247.67 181.25 246.83 177.83 247.03 175.02 C 246.81 169.79 247.46 164.50 246.65 159.32 C 245.49 155.67 241.11 155.93 238.04 155.96 C 231.14 156.26 224.17 155.48 217.33 156.38 Z" />
</g>
<g id="#ffffffff">
<path fill="#ffffff" opacity="1.00" d=" M 57.33 57.38 C 64.17 56.47 71.14 57.26 78.04 56.96 C 81.11 56.93 85.49 56.67 86.65 60.32 C 87.46 65.50 86.81 70.79 87.03 76.02 C 86.83 78.83 87.67 82.26 85.50 84.51 C 83.54 86.43 80.54 85.89 78.04 86.04 C 71.70 85.90 65.34 86.19 58.99 85.91 C 56.34 85.98 53.97 83.69 54.07 81.01 C 53.88 74.99 53.99 68.96 54.01 62.93 C 53.86 60.63 54.94 58.04 57.33 57.38 Z" />
<path fill="#ffffff" opacity="1.00" d=" M 110.33 57.38 C 117.17 56.48 124.15 57.26 131.04 56.96 C 134.11 56.93 138.49 56.67 139.65 60.32 C 140.46 65.50 139.81 70.79 140.04 76.01 C 139.83 78.83 140.67 82.26 138.50 84.51 C 136.54 86.43 133.53 85.89 131.04 86.04 C 124.69 85.90 118.34 86.19 111.99 85.91 C 109.34 85.98 106.97 83.69 107.07 81.01 C 106.88 74.99 106.99 68.96 107.01 62.93 C 106.86 60.63 107.94 58.04 110.33 57.38 Z" />
<path fill="#ffffff" opacity="1.00" d=" M 164.33 57.38 C 169.83 56.50 175.44 57.22 180.99 56.99 C 184.43 57.14 188.06 56.48 191.37 57.66 C 194.12 58.97 194.06 62.35 194.03 64.94 C 193.89 70.59 194.27 76.26 193.83 81.89 C 193.53 84.66 190.64 86.17 188.07 85.98 C 180.71 86.00 173.35 86.13 166.00 85.91 C 163.34 85.98 160.96 83.70 161.07 81.01 C 160.88 74.99 160.99 68.95 161.01 62.93 C 160.86 60.63 161.94 58.04 164.33 57.38 Z" />
<path fill="#ffffff" opacity="1.00" d=" M 217.33 57.38 C 224.18 56.48 231.15 57.26 238.04 56.96 C 241.11 56.93 245.49 56.67 246.65 60.32 C 247.46 65.50 246.81 70.79 247.03 76.01 C 246.83 78.83 247.67 82.26 245.50 84.51 C 243.53 86.43 240.53 85.89 238.04 86.04 C 231.69 85.90 225.34 86.19 219.00 85.91 C 216.34 85.98 213.96 83.69 214.07 81.01 C 213.88 74.99 213.99 68.96 214.01 62.93 C 213.86 60.63 214.94 58.04 217.33 57.38 Z" />
<path fill="#ffffff" opacity="1.00" d=" M 57.33 106.38 C 64.17 105.47 71.15 106.26 78.04 105.96 C 81.11 105.93 85.49 105.67 86.65 109.32 C 87.46 114.50 86.81 119.79 87.03 125.01 C 86.83 127.83 87.67 131.25 85.50 133.51 C 83.54 135.43 80.53 134.89 78.04 135.04 C 71.69 134.90 65.34 135.19 58.99 134.91 C 56.34 134.98 53.97 132.69 54.07 130.01 C 53.88 123.99 53.99 117.96 54.01 111.93 C 53.86 109.63 54.94 107.04 57.33 106.38 Z" />
<path fill="#ffffff" opacity="1.00" d=" M 110.33 106.38 C 117.86 105.49 125.51 106.22 133.08 105.98 C 135.90 105.72 139.48 106.86 139.83 110.12 C 140.28 115.41 139.88 120.73 140.04 126.04 C 139.89 128.54 140.48 131.56 138.50 133.51 C 136.54 135.44 133.53 134.89 131.04 135.04 C 124.69 134.90 118.33 135.19 111.99 134.91 C 109.33 134.98 106.97 132.69 107.07 130.01 C 106.88 123.99 106.99 117.96 107.01 111.93 C 106.86 109.63 107.94 107.04 110.33 106.38 Z" />
<path fill="#ffffff" opacity="1.00" d=" M 164.33 106.38 C 171.17 105.47 178.14 106.26 185.04 105.96 C 188.11 105.93 192.49 105.67 193.65 109.32 C 194.46 114.50 193.81 119.79 194.03 125.01 C 193.83 127.83 194.67 131.25 192.50 133.51 C 190.54 135.43 187.53 134.89 185.04 135.04 C 178.69 134.90 172.33 135.19 165.99 134.91 C 163.33 134.98 160.96 132.69 161.07 130.01 C 160.88 123.99 160.99 117.96 161.01 111.93 C 160.86 109.63 161.94 107.04 164.33 106.38 Z" />
<path fill="#ffffff" opacity="1.00" d=" M 217.33 106.38 C 224.17 105.47 231.14 106.26 238.04 105.96 C 241.11 105.93 245.49 105.67 246.65 109.32 C 247.44 114.16 246.82 119.11 247.03 124.00 C 246.89 126.78 247.43 129.74 246.34 132.38 C 245.02 135.10 241.65 135.03 239.07 135.03 C 232.38 134.91 225.68 135.18 218.99 134.91 C 216.34 134.98 213.97 132.70 214.07 130.02 C 213.88 123.99 213.99 117.96 214.01 111.94 C 213.86 109.63 214.94 107.04 217.33 106.38 Z" />
<path fill="#ffffff" opacity="1.00" d=" M 57.33 156.38 C 62.83 155.50 68.45 156.22 73.99 155.99 C 77.44 156.14 81.06 155.48 84.37 156.66 C 87.11 157.97 87.06 161.34 87.03 163.94 C 86.89 169.58 87.27 175.25 86.83 180.88 C 86.53 183.66 83.64 185.17 81.07 184.98 C 74.03 185.04 66.98 185.04 59.93 184.98 C 57.01 185.27 53.92 183.15 54.07 180.01 C 53.88 173.99 53.99 167.96 54.01 161.93 C 53.86 159.63 54.94 157.04 57.33 156.38 Z" />
<path fill="#ffffff" opacity="1.00" d=" M 110.33 156.38 C 117.17 155.48 124.15 156.26 131.04 155.96 C 134.11 155.93 138.49 155.67 139.65 159.32 C 140.46 164.50 139.81 169.79 140.04 175.01 C 139.83 177.83 140.67 181.26 138.50 183.51 C 136.53 185.43 133.53 184.89 131.04 185.04 C 124.69 184.90 118.33 185.19 111.99 184.91 C 109.33 184.98 106.97 182.69 107.07 180.01 C 106.88 173.99 106.99 167.96 107.01 161.94 C 106.86 159.64 107.94 157.04 110.33 156.38 Z" />
<path fill="#ffffff" opacity="1.00" d=" M 164.33 156.38 C 172.18 155.52 180.17 156.17 188.07 156.02 C 191.00 155.72 194.06 157.86 193.93 160.99 C 194.09 167.32 194.09 173.67 193.93 180.01 C 194.01 182.68 191.67 184.98 189.01 184.91 C 181.65 185.13 174.29 185.00 166.93 184.98 C 164.01 185.27 160.92 183.15 161.07 180.01 C 160.88 173.99 160.99 167.96 161.01 161.93 C 160.86 159.63 161.94 157.04 164.33 156.38 Z" />
<path fill="#ffffff" opacity="1.00" d=" M 217.33 156.38 C 224.17 155.48 231.14 156.26 238.04 155.96 C 241.11 155.93 245.49 155.67 246.65 159.32 C 247.46 164.50 246.81 169.79 247.03 175.02 C 246.83 177.83 247.67 181.25 245.51 183.51 C 243.54 185.43 240.53 184.89 238.04 185.04 C 231.69 184.90 225.34 185.19 219.00 184.91 C 216.34 184.98 213.97 182.70 214.07 180.01 C 213.88 173.99 213.99 167.95 214.01 161.93 C 213.86 159.63 214.94 157.04 217.33 156.38 Z" />
</g>
</svg>
