<svg version="1.2" xmlns="http://www.w3.org/2000/svg" viewBox="0 0 800 803" width="800" height="803">
	<style>
		.s0 { fill: #ffffff } 
	</style>
	<g>
		<path class="s0" d="m677.68 142.49c-51.79-24.23-107.16-41.84-165.05-51.87-7.11 12.86-15.42 30.15-21.14 43.9q-92.31-13.88-182.92 0c-5.72-13.75-14.22-31.04-21.39-43.9-57.95 10.03-113.39 27.7-165.17 52-104.46 157.84-132.77 311.76-118.61 463.49 69.28 51.74 136.41 83.16 202.42 103.73 16.3-22.43 30.83-46.27 43.35-71.4-23.84-9.06-46.69-20.25-68.27-33.23 5.73-4.24 11.33-8.67 16.74-13.24 131.63 61.57 274.66 61.57 404.72 0 5.47 4.57 11.07 9 16.73 13.24-21.64 13.05-44.54 24.23-68.39 33.29 12.52 25.07 26.99 48.97 43.35 71.4 66.07-20.56 133.27-51.99 202.55-103.79 16.61-175.9-28.38-328.4-118.92-463.62zm-410.57 370.31c-39.52 0-71.92-36.89-71.92-81.82 0-44.92 31.71-81.87 71.92-81.87 40.2 0 72.61 36.89 71.92 81.87 0.06 44.93-31.72 81.82-71.92 81.82zm265.78 0c-39.51 0-71.92-36.89-71.92-81.82 0-44.92 31.71-81.87 71.92-81.87 40.21 0 72.61 36.89 71.92 81.87 0 44.93-31.71 81.82-71.92 81.82z"/>
		<g id="Folder 1">
		</g>
	</g>
</svg>