<svg version="1.2" xmlns="http://www.w3.org/2000/svg" viewBox="0 0 800 803" width="800" height="803">
	<style>
		.s0 { fill: #ffffff } 
	</style>
	<path fill-rule="evenodd" class="s0" d="m400 11c-221 0-400 179-400 400 0 177 114.5 326.5 273.5 379.5 20 3.5 27.5-8.5 27.5-19 0-9.5-0.5-41-0.5-74.5-100.5 18.5-126.5-24.5-134.5-47-4.5-11.5-24-47-41-56.5-14-7.5-34-26-0.5-26.5 31.5-0.5 54 29 61.5 41 36 60.5 93.5 43.5 116.5 33 3.5-26 14-43.5 25.5-53.5-89-10-182-44.5-182-197.5 0-43.5 15.5-79.5 41-107.5-4-10-18-51 4-106 0 0 33.5-10.5 110 41 32-9 66-13.5 100-13.5 34 0 68 4.5 100 13.5 76.5-52 110-41 110-41 22 55 8 96 4 106 25.5 28 41 63.5 41 107.5 0 153.5-93.5 187.5-182.5 197.5 14.5 12.5 27 36.5 27 74 0 53.5-0.5 96.5-0.5 110 0 10.5 7.5 23 27.5 19 158-53 272.5-203 272.5-379.5 0-221-179-400-400-400z"/>
</svg>