<svg version="1.2" xmlns="http://www.w3.org/2000/svg" viewBox="0 0 256 256" width="256" height="256">
	<title>pin</title>
	<style>
		.s0 { fill: #34beed } 
	</style>
	<g>
		<g>
			<g>
				<path class="s0" d="m157.8 10.9c-1 0.5-3.4 2.4-5.3 4.4l-3.4 3.5 0.2 11.5c0.3 16.3 1.4 14.3-17.6 29.3-13 10.2-29 21.6-32.4 23-3.3 1.4-6.5 1.1-16.1-1.6-18.1-5-18.4-5.1-21.2-4.4-1.5 0.4-5.9 3.1-11 6.7-7 5-8.5 6.3-8.6 7.8-0.2 1.6 5.2 7.2 60.1 62.1 50.1 50.1 60.6 60.3 61.9 60.3 1.4 0 2.6-1.2 7.9-8.7 3.4-4.8 6.5-9.8 6.8-11.1 0.7-2.6 0.6-3.1-4.4-21.1-2.7-9.7-3-13.5-1.4-16.6 3.1-5.9 27.5-38.7 34-45.7 3.4-3.5 6-4.2 16.5-3.7 5.1 0.2 10.2 0.1 11.6-0.2 3.1-0.7 8.8-6.3 9.8-9.5 1.6-5.5 3.4-3.5-39.2-46.1-21.5-21.5-39.9-39.5-41-40-2.2-1-4.7-1-7.2 0.1z"/>
				<path class="s0" d="m45.4 194.4c-19 27.4-34.8 50.3-35.1 50.9-0.6 0.9-0.5 0.9 0.7 0.1 18.1-12.1 100.3-69.6 100.3-70 0-0.8-30-30.8-30.8-30.8-0.3-0.1-16.1 22.3-35.1 49.8z"/>
			</g>
		</g>
	</g>
</svg>