<?xml version="1.0" encoding="UTF-8" ?>
<!DOCTYPE svg PUBLIC "-//W3C//DTD SVG 1.1//EN" "http://www.w3.org/Graphics/SVG/1.1/DTD/svg11.dtd">
<svg width="103pt" height="53pt" viewBox="0 0 103 53" version="1.1" xmlns="http://www.w3.org/2000/svg">
<g id="#ffffffff">
<path fill="#ffffff" opacity="1.00" d=" M 80.24 15.09 C 82.35 14.44 84.43 16.10 84.81 18.15 C 84.75 20.67 81.88 23.07 79.55 21.37 C 76.88 20.06 77.48 15.91 80.24 15.09 Z" />
<path fill="#ffffff" opacity="1.00" d=" M 19.72 17.69 C 21.36 17.50 23.01 17.47 24.66 17.60 C 24.73 19.47 24.77 21.34 24.79 23.22 C 26.60 23.24 28.42 23.26 30.23 23.29 C 30.27 24.94 30.24 26.59 30.13 28.24 C 28.37 28.23 26.61 28.23 24.85 28.23 C 24.77 30.05 24.71 31.87 24.68 33.69 C 23.07 33.71 21.47 33.75 19.87 33.79 C 19.78 31.96 19.72 30.13 19.70 28.30 C 17.80 28.32 15.91 28.21 14.02 28.04 C 14.00 26.46 14.05 24.89 14.18 23.33 C 16.05 23.32 17.92 23.22 19.78 23.08 C 19.76 21.28 19.74 19.48 19.72 17.69 Z" />
<path fill="#ffffff" opacity="1.00" d=" M 70.54 22.49 C 73.46 21.07 76.72 24.90 74.75 27.54 C 73.53 29.92 69.76 29.49 68.78 27.13 C 67.87 25.39 68.92 23.36 70.54 22.49 Z" />
<path fill="#ffffff" opacity="1.00" d=" M 89.50 22.42 C 92.66 21.09 95.71 25.81 93.04 28.07 C 91.18 30.40 87.17 28.74 87.23 25.87 C 87.00 24.33 88.10 22.92 89.50 22.42 Z" />
<path fill="#ffffff" opacity="1.00" d=" M 80.09 29.68 C 82.43 28.62 85.39 31.21 84.61 33.68 C 84.12 35.61 81.74 37.22 79.87 36.03 C 77.06 35.01 77.21 30.52 80.09 29.68 Z" />
</g>
<g id="#34beedff">
<path fill="#34beed" opacity="1.00" d=" M 17.86 2.82 C 27.27 -0.41 37.27 1.71 46.93 2.09 C 55.65 2.75 64.32 1.34 73.02 1.04 C 80.80 0.84 89.20 2.49 94.97 8.08 C 99.88 12.50 102.38 19.00 103.00 25.47 L 103.00 27.58 C 102.52 33.13 100.67 38.68 97.03 42.98 C 93.01 47.93 86.91 50.81 80.67 51.69 C 70.78 52.89 60.91 50.80 51.01 50.98 C 41.52 51.02 32.00 52.94 22.53 51.56 C 16.33 50.63 10.42 47.48 6.56 42.48 C 1.64 36.24 -0.22 27.66 1.94 19.98 C 3.98 12.11 10.04 5.29 17.86 2.82 M 80.24 15.09 C 77.48 15.91 76.88 20.06 79.55 21.37 C 81.88 23.07 84.75 20.67 84.81 18.15 C 84.43 16.10 82.35 14.44 80.24 15.09 M 19.72 17.69 C 19.74 19.48 19.76 21.28 19.78 23.08 C 17.92 23.22 16.05 23.32 14.18 23.33 C 14.05 24.89 14.00 26.46 14.02 28.04 C 15.91 28.21 17.80 28.32 19.70 28.30 C 19.72 30.13 19.78 31.96 19.87 33.79 C 21.47 33.75 23.07 33.71 24.68 33.69 C 24.71 31.87 24.77 30.05 24.85 28.23 C 26.61 28.23 28.37 28.23 30.13 28.24 C 30.24 26.59 30.27 24.94 30.23 23.29 C 28.42 23.26 26.60 23.24 24.79 23.22 C 24.77 21.34 24.73 19.47 24.66 17.60 C 23.01 17.47 21.36 17.50 19.72 17.69 M 70.54 22.49 C 68.92 23.36 67.87 25.39 68.78 27.13 C 69.76 29.49 73.53 29.92 74.75 27.54 C 76.72 24.90 73.46 21.07 70.54 22.49 M 89.50 22.42 C 88.10 22.92 87.00 24.33 87.23 25.87 C 87.17 28.74 91.18 30.40 93.04 28.07 C 95.71 25.81 92.66 21.09 89.50 22.42 M 80.09 29.68 C 77.21 30.52 77.06 35.01 79.87 36.03 C 81.74 37.22 84.12 35.61 84.61 33.68 C 85.39 31.21 82.43 28.62 80.09 29.68 Z" />
</g>
</svg>
