<svg version="1.2" xmlns="http://www.w3.org/2000/svg" viewBox="0 0 200 200" width="200" height="200">
	<title>New Project</title>
	<style>
		.s0 { fill: #36bfed } 
	</style>
	<path id="Shape 4" fill-rule="evenodd" class="s0" d="m100.5 44c6.9 0 12.5 5.6 12.5 12.5v67c0 6.9-5.6 12.5-12.5 12.5-6.9 0-12.5-5.6-12.5-12.5v-67c0-6.9 5.6-12.5 12.5-12.5z"/>
	<path id="Shape 3" fill-rule="evenodd" class="s0" d="m23.5 161h151c5.8 0 10.5 4.7 10.5 10.5 0 5.8-4.7 10.5-10.5 10.5h-151c-5.8 0-10.5-4.7-10.5-10.5 0-5.8 4.7-10.5 10.5-10.5z"/>
	<path id="Shape 1" fill-rule="evenodd" class="s0" d="m99.6 12c3.9 0 7.5 2.3 9.4 6l59 110.9c1.9 3.7 1.9 8.3 0 12-1.9 3.8-5.6 6.1-9.5 6.1h-117.8c-3.9 0-7.6-2.3-9.5-6.1-1.9-3.7-1.9-8.3 0-12l59-110.9c2-3.7 5.5-6 9.4-6zm0 38.6c-3.6 0-6.5 3.2-6.5 7.2v33.8c0 4 2.9 7.2 6.5 7.2 3.6 0 6.5-3.2 6.5-7.2v-33.8c0-4-2.9-7.2-6.5-7.2zm8.7 67.5c0-2.6-0.9-5-2.5-6.8-1.7-1.9-3.9-2.9-6.2-2.9-2.3 0-4.5 1-6.2 2.9-1.6 1.8-2.5 4.2-2.5 6.8 0 2.5 0.9 5 2.5 6.8 1.7 1.8 3.9 2.8 6.2 2.8 2.3 0 4.5-1 6.2-2.8 1.6-1.8 2.5-4.3 2.5-6.8z"/>
</svg>