<svg version="1.2" xmlns="http://www.w3.org/2000/svg" viewBox="0 0 1469 207" width="1469" height="207">
	<title>WiiMart Super Center</title>
	<style>
		.s0 { fill: #ffffff } 
	</style>
	<path id="WII★MARt" class="s0" aria-label="WII★MARt"  d="m139.5 69l-22.2 136h-65.2l-51.4-204h59.9l23.4 136.4 24.4-136.4h65.3l23.6 135.5 24.7-135.5h59.3l-51.1 204h-65.2zm148.9-68h51.4v204h-51.4zm66 0h51.4v204h-51.4zm149.9 129.8l-64.3-46.9h79.6l24.7-75.6 24.8 75.6h79.5l-64.3 46.9 24.7 75.4-64.7-46.8-64.6 46.8zm228.4-46.6v120.8h-54.8v-204h83.8l29.7 140.6 29.4-140.6h84v204h-54.7v-120.8l-30.3 120.8h-57zm181.6 120.9l61.2-204h85.4l61.2 204h-60.2l-12-40.9h-66.2l-11.8 40.9zm102.8-160.2l-20.7 66h40.7zm223.8 72.3l63.1 87.9h-69.6l-46.7-76.9v76.9h-55.8v-205.1h95.2q24.1 0.3 36.8 5 19.5 7.4 26.4 26 4.4 11.9 4.7 25.6-0.1 22.7-11.6 38.8-12.8 18.1-34.8 21 0 0-7.7 0.8zm-1.7-50q0-9.3-6.9-13.4-5.7-3.3-16.2-3.3h-28.4v35.3h26.1q13.5 0 18.1-3.3 7.3-5.2 7.3-15.3zm69.7-13.2v-52.9h159.9v52.9h-52v151.1h-55.8v-151.1z"/>
</svg>